<svg width="234" height="100" viewBox="0 0 434 210" fill="none" xmlns="http://www.w3.org/2000/svg">
<path fill-rule="evenodd" clip-rule="evenodd" d="M0 5.145H9.78188C20.5885 5.145 29.6543 12.3025 29.6543 34.3394C29.6543 43.0719 27.8435 50.5269 23.8194 55.3919C30.9225 58.5419 35.1034 70.1225 35.1034 83.0156C35.1034 104.479 25.5578 113.063 13.806 113.063H0V5.145ZM6.62332 52.6662H9.15017C16.6415 52.6662 23.0333 51.0912 23.0333 34.3394C23.0333 18.0294 17.3552 16.3056 9.22973 16.3056H6.62332V52.6662ZM6.62332 101.907H13.2539C20.668 101.907 28.4776 98.6169 28.4776 82.1625C28.4776 65.4062 19.6409 62.9737 12.3835 62.9737H6.62332V101.911V101.907ZM37.9364 5.145H68.7794V16.3056H44.5597V48.37H68.0681V59.5394H44.5597V101.907H68.7794V113.063H37.9364V5.145ZM76.0175 5.145H87.2195C96.131 5.145 103.391 7.28875 110.41 18.1737C117.197 28.7656 120.271 43.225 120.271 59.2462C120.271 74.9962 117.112 88.8869 110.566 99.4744C103.47 110.919 96.3697 113.063 87.0652 113.063H76.0175V5.145ZM87.4558 101.907C94.7109 101.907 100.787 100.043 106.229 90.7331C111.121 82.4381 113.643 71.1331 113.643 59.115C113.643 46.8037 111.039 34.9212 105.918 26.7619C100.473 18.0294 94.4746 16.3056 87.4558 16.3056H82.6433V101.907H87.4558ZM142.08 5.145H151.864C162.666 5.145 171.741 12.3025 171.741 34.3394C171.741 43.0719 169.925 50.5269 165.901 55.3919C173.002 58.5419 177.183 70.1225 177.183 83.0156C177.183 104.479 167.635 113.063 155.883 113.063H142.08V5.145ZM148.703 52.6662H151.227C158.726 52.6662 165.115 51.0912 165.115 34.3394C165.115 18.0294 159.43 16.3056 151.312 16.3056H148.703V52.6662ZM148.703 101.907H155.333C162.745 101.907 170.557 98.6169 170.557 82.1625C170.557 65.4062 161.72 62.9737 154.463 62.9737H148.7V101.911L148.703 101.907ZM189.733 82.4381L182.56 113.063H175.302L202.753 0L229.492 113.067H222.155L215.134 82.4381H189.733ZM202.594 28.0525L192.419 71.2775H212.535L202.594 28.0525ZM243.824 113.067H237.198V16.3056H222.84V5.14937H258.339V16.3056H243.824V113.067ZM299.547 48.9475V5.14937H306.165V113.063H299.547V60.1081H269.092V113.063H262.466V5.14937H269.092V48.9475H299.547ZM359.769 98.3675C354.629 106.724 348.492 114.931 341.281 114.931C332.454 114.931 324.41 102.961 324.41 86.2575C324.41 68.7137 331.388 60.3706 338.597 51.7387L339.289 50.9031C336.685 44.3581 333.531 37.2706 333.531 28.6344C333.531 15.4131 338.978 6.36125 346.19 6.36125C352.709 6.36125 358.462 14.7131 358.462 26.9631C358.462 39.4887 353.247 46.3181 348.263 53.1256L360.461 81.3881L366.978 67.6069L371.666 74.5631L364.295 90.16L374.113 113.129H365.975L359.769 98.3675ZM340.287 62.8731C335.911 68.2981 330.691 74.7075 330.691 85.4262C330.691 95.305 335.453 104.357 340.895 104.357C346.73 104.357 351.791 96.1406 355.935 89.6044L343.046 59.5394L340.287 62.8731ZM345.114 43.9469C348.413 39.3531 352.331 35.3194 352.331 26.9631C352.331 20.5669 349.413 16.2575 346.038 16.2575C345.2 16.2411 344.369 16.5282 343.593 17.102C342.817 17.6758 342.112 18.5247 341.519 19.599C340.926 20.6734 340.457 21.9516 340.139 23.3588C339.822 24.766 339.662 26.2739 339.67 27.7944C339.67 33.0837 341.589 36.9819 343.198 41.1644L344.577 44.6425L345.114 43.9425V43.9469ZM0 127.684H20.4727C29.8447 127.684 39.4096 131.372 39.4096 149.669C39.4096 156.621 37.2927 163.459 33.0588 165.672V166.298C38.3174 169.356 41.6592 175.661 41.6592 185.141C41.6592 201.438 32.415 207.016 23.9399 207.016H0V127.689V127.684ZM17.9049 158.204C20.4727 158.204 23.3637 157.78 23.3637 152.307C23.3637 146.401 20.0894 146.834 17.524 146.834H16.3015V158.204H17.9049ZM16.3015 188.081H18.2907C21.1792 188.081 25.3577 187.985 25.3577 181.449C25.3577 174.829 20.8585 174.926 18.0375 174.926H16.3015V188.081ZM44.661 127.684H80.8253V149.362H64.3502V156.936H79.4003V177.551H64.3502V185.351H81.3943V207.021H44.661V127.684ZM106.316 127.684L112.657 148.417H113.26C113.862 145.889 114.393 143.364 115.147 140.945L119.217 127.684H142.463L122.996 172.83V207.021H102.774V172.83L82.9254 127.68H106.316V127.684Z" fill="#696969e8"/>
<g clip-path="url(#clip0)">
<path fill-rule="evenodd" clip-rule="evenodd" d="M202.641 165.715C202.641 191.537 187.027 207 167.823 207C148.614 207 133 191.537 133 165.715C133 140.436 148.699 124 167.823 124C186.944 124 202.641 140.436 202.641 165.715ZM156.047 166.145C156.047 175.31 160.888 181.608 167.823 181.608C174.75 181.608 179.596 175.31 179.596 166.145C179.596 157.61 175.086 150.456 167.823 150.456C160.555 150.456 156.047 157.61 156.047 166.145ZM203.882 126.98H226.89L247.131 167.865C247.131 167.865 247.096 157.197 247.096 150.595V126.98H270.017V205.745H247.096L226.777 165.984C226.777 165.984 226.798 174.928 226.798 180.144V205.745H203.882V126.98ZM273.095 126.98H308.701C340.988 126.98 365.75 138.572 365.75 167.505C365.75 190.916 345.581 205.745 317.376 205.745H273.095V126.98ZM308.064 182.133H310.227C321.846 182.133 330.781 177.747 330.781 167.405C330.781 156.337 322.998 151.633 310.227 151.633H308.067V182.133H308.064ZM365.079 150.821V132.274H361.411V129.794H370.228V132.274H366.548V150.821H365.079ZM371.697 150.821V129.794H373.91L376.544 144.679C376.792 146.069 376.967 147.107 377.08 147.794C377.204 147.029 377.402 145.9 377.668 144.423L380.334 129.794H382.311V150.817H380.895V133.217L377.659 150.821H376.335L373.115 132.922V150.817H371.697V150.821Z" fill="#696969e8"/>
<path fill-rule="evenodd" clip-rule="evenodd" d="M396.52 139.289L393.349 150.457C392.992 151.677 392.349 151.56 391.703 150.891L389.409 148.632L391.119 165.794C391.48 168.93 390.326 168.93 389.761 167.574L385.754 159.105L385.104 163.405C385.028 163.969 384.699 164.56 384.207 164.417L379.141 162.41L380.472 171.544C380.755 173.586 380.978 174.42 380.185 174.954L378.378 176.561L387.09 189.939C387.265 190.196 387.397 190.545 387.469 190.943C387.54 191.341 387.548 191.77 387.492 192.176L386.729 196.91C389.733 196.259 392.418 195.273 395.417 194.665C395.686 194.613 396.13 195.438 396.13 196.02L395.73 213.351H397.189L396.959 196.055C396.955 195.477 397.359 194.613 397.624 194.665C400.628 195.273 403.313 196.255 406.317 196.906L405.554 192.176C405.497 191.771 405.503 191.343 405.573 190.945C405.642 190.548 405.771 190.196 405.944 189.935L414.665 176.557L412.856 174.954C412.068 174.42 412.286 173.581 412.573 171.544L413.902 162.41L408.838 164.417C408.346 164.56 408.018 163.969 407.942 163.4L407.289 159.1L403.285 167.574C402.72 168.93 401.566 168.93 401.924 165.794L403.637 148.637L401.343 150.887C400.695 151.56 400.053 151.677 399.695 150.457" fill="#696969e8"/>
</g>
<defs>
<clipPath id="clip0">
<rect x="133" y="124" width="287" height="83" fill="white"/>
</clipPath>
</defs>
</svg>
