<?xml version="1.0" encoding="iso-8859-1"?>
<!-- Generator: Adobe Illustrator 19.1.0, SVG Export Plug-In . SVG Version: 6.00 Build 0)  -->
<svg version="1.1" id="Capa_1" xmlns="http://www.w3.org/2000/svg" xmlns:xlink="http://www.w3.org/1999/xlink" x="0px" y="0px"
	 viewBox="0 0 465.978 465.978" style="enable-background:new 0 0 465.978 465.978;" xml:space="preserve">
<g>
	<g>
		<g>
			<g>
				<path style="fill:#484fcf;" d="M232.984,76.295c-28.236,0-51.108,22.891-51.108,51.118c0,28.206,22.882,51.088,51.108,51.088
					s51.108-22.882,51.108-51.088C284.111,99.177,261.22,76.295,232.984,76.295z M232.984,154.671
					c-15.222,0-27.552-12.33-27.552-27.552c0-15.212,12.34-27.552,27.552-27.552c15.212,0,27.562,12.34,27.562,27.552
					C260.546,142.342,248.206,154.671,232.984,154.671z M52.353,0v361.291H166.01l66.974,104.687l66.974-104.687h113.666V0H52.353z
					 M307.941,155.16c-10.493,31.196-80.008,191.515-80.008,191.515s-65.441-174.798-71.117-194.817
					c-2.53-7.787-3.928-16.082-3.928-24.728c0-44.23,35.866-80.106,80.106-80.106c44.249,0,80.106,35.876,80.106,80.106
					C313.1,136.997,311.224,146.425,307.941,155.16z"/>
			</g>
		</g>
	</g>
</g>
<g>
</g>
<g>
</g>
<g>
</g>
<g>
</g>
<g>
</g>
<g>
</g>
<g>
</g>
<g>
</g>
<g>
</g>
<g>
</g>
<g>
</g>
<g>
</g>
<g>
</g>
<g>
</g>
<g>
</g>
</svg>
