<svg width="210" height="210" viewBox="0 0 210 210" fill="none" xmlns="http://www.w3.org/2000/svg">
<path fill-rule="evenodd" clip-rule="evenodd" d="M105 210C162.99 210 210 162.99 210 105C210 47.0101 162.99 0 105 0C47.0101 0 0 47.0101 0 105C0 162.99 47.0101 210 105 210ZM194.387 105C194.387 124.903 187.882 143.287 176.883 158.141C176.96 157.772 177 157.39 177 157C177 153.686 174.09 151 170.5 151C166.91 151 164 153.686 164 157C164 160.314 166.91 163 170.5 163C171.644 163 172.718 162.727 173.652 162.249C158.055 180.931 134.976 193.15 109.019 194.299L109.867 117.142C114.053 115.422 117 111.305 117 106.5C117 100.149 111.851 95 105.5 95C99.1487 95 94 100.149 94 106.5C94 110.807 96.368 114.562 99.8733 116.532L99.0199 194.19C52.441 191.114 15.6127 152.358 15.6127 105C15.6127 82.8565 23.6645 62.5936 37 46.9794L37 47C37 50.3137 39.9101 53 43.5 53C47.0899 53 50 50.3137 50 47C50 43.6863 47.0899 41 43.5 41C43.1701 41 42.846 41.0227 42.5293 41.0665C58.1039 25.846 79.2181 16.2698 102.565 15.6453C100.45 16.6352 99 18.6613 99 21C99 24.3137 101.91 27 105.5 27C109.09 27 112 24.3137 112 21C112 18.6886 110.584 16.6825 108.509 15.6804C134.674 16.6904 157.953 28.9464 173.652 47.7513C172.718 47.2726 171.644 47 170.5 47C166.91 47 164 49.6863 164 53C164 56.3137 166.91 59 170.5 59C174.09 59 177 56.3137 177 53C177 52.6097 176.96 52.2281 176.883 51.8586C186.141 64.3609 192.214 79.3633 193.906 95.6673C192.74 94.059 190.754 93 188.5 93C184.91 93 182 95.6863 182 99C182 102.314 184.91 105 188.5 105C191.054 105 193.263 103.641 194.326 101.663C194.367 102.771 194.387 103.883 194.387 105ZM37.5 157C41.0899 157 44 154.314 44 151C44 147.686 41.0899 145 37.5 145C33.9101 145 31 147.686 31 151C31 154.314 33.9101 157 37.5 157ZM29 99C29 102.314 26.0898 105 22.5 105C18.9102 105 16 102.314 16 99C16 95.6863 18.9102 93 22.5 93C26.0898 93 29 95.6863 29 99Z" fill="#696969"/>
</svg>
